<svg width="20" height="20" viewBox="0 0 20 20" fill="none" xmlns="http://www.w3.org/2000/svg">
<path d="M14.7792 20C14.6638 20.0002 14.5531 19.9546 14.4714 19.8731L4.90851 10.3102C4.73883 10.1405 4.73883 9.86534 4.90851 9.69557L14.4714 0.132685C14.6382 -0.0399769 14.9133 -0.0447448 15.086 0.122008C15.2587 0.288801 15.2635 0.563951 15.0967 0.736653C15.0932 0.74028 15.0897 0.743825 15.086 0.74733L5.83091 10.0025L15.0869 19.2576C15.2569 19.4271 15.2572 19.7024 15.0877 19.8723C15.0059 19.9542 14.8949 20.0002 14.7792 20Z" fill="#F44336"/>
<path d="M14.7792 20C14.6638 20.0002 14.5531 19.9546 14.4714 19.8731L4.90851 10.3102C4.73883 10.1405 4.73883 9.86534 4.90851 9.69557L14.4714 0.132685C14.6382 -0.0399769 14.9133 -0.0447448 15.086 0.122008C15.2587 0.288801 15.2635 0.563951 15.0967 0.736653C15.0932 0.74028 15.0897 0.743825 15.086 0.74733L5.83091 10.0025L15.0869 19.2576C15.2569 19.4271 15.2572 19.7024 15.0877 19.8723C15.0059 19.9542 14.8949 20.0002 14.7792 20Z" fill="black"/>
</svg>
