<svg width="20" height="20" viewBox="0 0 20 20" fill="none" xmlns="http://www.w3.org/2000/svg">
<path d="M5.22085 20C5.33622 20.0002 5.44694 19.9546 5.5286 19.8731L15.0915 10.3102C15.2612 10.1405 15.2612 9.86534 15.0915 9.69557L5.5286 0.132685C5.36181 -0.0399769 5.08666 -0.0447448 4.91396 0.122008C4.74129 0.288801 4.73653 0.563951 4.90328 0.736653C4.90678 0.74028 4.91033 0.743825 4.91396 0.74733L14.1691 10.0025L4.9131 19.2576C4.74313 19.4271 4.7428 19.7024 4.91232 19.8723C4.99407 19.9542 5.10512 20.0002 5.22085 20Z" fill="#F44336"/>
<path d="M5.22085 20C5.33622 20.0002 5.44694 19.9546 5.5286 19.8731L15.0915 10.3102C15.2612 10.1405 15.2612 9.86534 15.0915 9.69557L5.5286 0.132685C5.36181 -0.0399769 5.08666 -0.0447448 4.91396 0.122008C4.74129 0.288801 4.73653 0.563951 4.90328 0.736653C4.90678 0.74028 4.91033 0.743825 4.91396 0.74733L14.1691 10.0025L4.9131 19.2576C4.74313 19.4271 4.7428 19.7024 4.91232 19.8723C4.99407 19.9542 5.10512 20.0002 5.22085 20Z" fill="black"/>
</svg>
