<svg style="width:0; height:0; visibility: hidden;" xmlns="http://www.w3.org/2000/svg">

    <!-- zoom -->
	<symbol id="svg-zoom" viewBox="0 0 30 30">
		<g clip-path="url(#clip0_138_127)">
		<path d="M13.6107 12.2428H16.4154V9.3978C16.4154 9.02876 16.7174 8.72681 17.0864 8.72681C17.4555 8.72681 17.7574 9.02876 17.7574 9.3978V12.2428H20.6024C20.9715 12.2428 21.2734 12.5448 21.2734 12.9138C21.2734 13.2829 20.9715 13.5848 20.6024 13.5848H17.7574V16.3963C17.7574 16.7653 17.4555 17.0673 17.0864 17.0673C16.7174 17.0673 16.4154 16.7653 16.4154 16.3963V13.5848H13.6107C13.2416 13.5848 12.9397 13.2829 12.9397 12.9138C12.9397 12.5448 13.2349 12.2428 13.6107 12.2428Z" fill="black"/>
		<path d="M9.9265 5.66706C13.8988 1.70147 20.3605 1.70147 24.3261 5.66706C28.2917 9.63266 28.2917 16.0944 24.3261 20.0667C20.3471 24.0323 13.9055 24.0323 9.9265 20.0667C5.96091 16.1011 5.96091 9.63937 9.9265 5.66706ZM10.8793 19.1206C14.3282 22.5628 19.9378 22.5695 23.38 19.1206C26.8289 15.6716 26.8289 10.0621 23.38 6.61988C19.9244 3.17767 14.335 3.17767 10.8793 6.61988C7.4304 10.0621 7.4304 15.6716 10.8793 19.1206Z" fill="black"/>
		<path d="M0.719469 25.7768C0.726179 25.7701 0.732887 25.7634 0.739597 25.7567L6.44307 20.0398C2.48419 14.1417 4.05432 6.14346 9.95238 2.18458C15.8504 -1.7743 23.8487 -0.204168 27.8076 5.69389C31.7665 11.592 30.1964 19.5902 24.2983 23.5491C22.4329 24.8039 20.2723 25.542 18.0312 25.703C17.7292 25.7232 17.4273 25.7366 17.132 25.7366C14.5756 25.7366 12.0794 24.9783 9.95909 23.5558L4.25562 29.2593C3.28938 30.239 1.71925 30.2457 0.746307 29.2861C-0.233347 28.3199 -0.240057 26.7498 0.719469 25.7768ZM10.2812 22.14C15.4076 25.9312 22.6275 24.8441 26.4119 19.7244C30.1964 14.6047 29.1161 7.3781 23.9896 3.59367C18.8632 -0.190749 11.6433 0.889556 7.85887 6.01597C4.8461 10.0956 4.8461 15.6649 7.8723 19.7446C8.55 20.6504 9.36191 21.4623 10.2812 22.14ZM1.6857 28.3132C1.90042 28.5279 2.18895 28.6487 2.49761 28.6487C2.79956 28.6487 3.08809 28.5279 3.30281 28.3132L8.87208 22.7439C8.58355 22.5024 8.30173 22.2474 8.02662 21.9723C7.75151 21.6972 7.49654 21.4154 7.25498 21.1268L1.6857 26.6961C1.24285 27.139 1.24285 27.8636 1.6857 28.3132Z" fill="black"/>
		</g>
		<defs>
		<clipPath id="clip0_138_127">
		<rect width="30" height="30" fill="white" transform="matrix(-1 0 0 1 30 0)"/>
		</clipPath>
		</defs>
	</symbol>

    <!-- arrow -->
	<symbol id="svg-arrow" viewBox="0 0 16 8">
		<g>
			<path d="M15.3536 4.03544C15.5488 3.84018 15.5488 3.52359 15.3536 3.32833L12.1716 0.146351C11.9763 -0.0489113 11.6597 -0.0489113 11.4645 0.146351C11.2692 0.341613 11.2692 0.658195 11.4645 0.853458L14.2929 3.68188L11.4645 6.51031C11.2692 6.70557 11.2692 7.02216 11.4645 7.21742C11.6597 7.41268 11.9763 7.41268 12.1716 7.21742L15.3536 4.03544ZM0 4.18188H15V3.18188H0V4.18188Z" fill="currentColor" />
		</g>
	</symbol>

    <!-- insta -->
	<symbol id="svg-insta" viewBox="0 0 25 25">
		<g clip-path="url(#clip0_138_204)">
			<path d="M18.0877 0H6.71346C3.0116 0 0 3.0116 0 6.71346V18.0879C0 21.7896 3.0116 24.8012 6.71346 24.8012H18.0879C21.7896 24.8012 24.8012 21.7896 24.8012 18.0879V6.71346C24.8012 3.0116 21.7896 0 18.0877 0V0ZM23.3472 18.0879C23.3472 20.9879 20.9879 23.3472 18.0877 23.3472H6.71346C3.81331 23.3472 1.45395 20.9879 1.45395 18.0879V6.71346C1.45395 3.81331 3.81331 1.45395 6.71346 1.45395H18.0879C20.9879 1.45395 23.3472 3.81331 23.3472 6.71346V18.0879Z" fill="currentColor" />
			<path d="M12.4005 5.61914C8.6612 5.61914 5.61914 8.6612 5.61914 12.4005C5.61914 16.1399 8.6612 19.1819 12.4005 19.1819C16.1399 19.1819 19.1819 16.1399 19.1819 12.4005C19.1819 8.6612 16.1399 5.61914 12.4005 5.61914ZM12.4005 17.728C9.46311 17.728 7.07309 15.3381 7.07309 12.4005C7.07309 9.46311 9.46311 7.07309 12.4005 7.07309C15.3381 7.07309 17.728 9.46311 17.728 12.4005C17.728 15.3381 15.3381 17.728 12.4005 17.728Z" fill="currentColor" />
			<path d="M19.3442 3.21094C18.2391 3.21094 17.3403 4.10991 17.3403 5.21476C17.3403 6.31979 18.2391 7.21876 19.3442 7.21876C20.4492 7.21876 21.3482 6.31979 21.3482 5.21476C21.3482 4.10972 20.4492 3.21094 19.3442 3.21094ZM19.3442 5.76462C19.041 5.76462 18.7943 5.51788 18.7943 5.21476C18.7943 4.91144 19.041 4.66489 19.3442 4.66489C19.6475 4.66489 19.8942 4.91144 19.8942 5.21476C19.8942 5.51788 19.6475 5.76462 19.3442 5.76462Z" fill="currentColor" />
		</g>
		<defs>
			<clipPath id="clip0_138_204">
			<rect width="24.8012" height="24.8012" fill="white" />
			</clipPath>
		</defs>
	</symbol>

    <!-- wa -->
	<symbol id="svg-wa" viewBox="0 0 25 25">
		<g clip-path="url(#clip0_138_208)">
			<path d="M21.2786 3.52268C19.0068 1.25092 15.9871 0 12.7741 0C12.774 0 12.7732 0 12.773 0C11.1839 0.000189218 9.63539 0.307858 8.17065 0.914682C6.70572 1.52151 5.3933 2.39891 4.26953 3.52268C1.99796 5.79425 0.747037 8.81455 0.747037 12.0271C0.747037 13.9429 1.2093 15.8469 2.08519 17.5432L0.0635802 23.3185C-0.0789013 23.7259 0.0219522 24.1687 0.327351 24.4739C0.540978 24.6877 0.822157 24.8012 1.11128 24.8012C1.23522 24.8012 1.36048 24.7804 1.48272 24.7377L7.25804 22.7162C8.95439 23.5921 10.8583 24.0544 12.7741 24.0544C15.9867 24.0544 19.0068 22.8033 21.2786 20.5317C23.5501 18.2601 24.8012 15.2398 24.8012 12.0273C24.8012 8.81455 23.5503 5.79425 21.2786 3.52268ZM20.25 19.5031C18.2532 21.5001 15.598 22.5997 12.7741 22.5997C11.0466 22.5997 9.33037 22.1724 7.81094 21.3637C7.53544 21.2173 7.20979 21.1921 6.91745 21.2945L1.67042 23.1308L3.50698 17.8838C3.60935 17.5911 3.58399 17.2654 3.43753 16.9901C2.629 15.4711 2.20156 13.7549 2.20156 12.0271C2.20156 9.20321 3.3013 6.54809 5.29812 4.55127C7.29475 2.55464 9.94949 1.4549 12.7732 1.45452H12.7741C15.5982 1.45452 18.2532 2.55426 20.25 4.55127C22.247 6.54809 23.3467 9.20302 23.3467 12.0271C23.3467 14.8512 22.247 17.5063 20.25 19.5031Z" fill="currentColor" />
			<path d="M17.2439 13.1015C16.6906 12.5482 15.7903 12.5482 15.237 13.1015L14.6319 13.7066C13.1293 12.8878 11.9134 11.6719 11.0944 10.1693L11.6996 9.56421C12.253 9.01094 12.253 8.11063 11.6996 7.55736L10.0689 5.92667C9.5156 5.3734 8.6153 5.3734 8.06203 5.92667L6.75755 7.23115C6.01033 7.97837 5.97306 9.26298 6.65254 10.8484C7.24252 12.225 8.3222 13.738 9.69271 15.1085C11.0632 16.479 12.5762 17.5587 13.9528 18.1487C14.7061 18.4715 15.3912 18.6325 15.9833 18.6325C16.6374 18.6325 17.1778 18.4359 17.5701 18.0437L18.8745 16.739V16.7392C19.1427 16.4711 19.2903 16.1148 19.2903 15.7358C19.2903 15.3566 19.1427 15.0003 18.8745 14.7323L17.2439 13.1015ZM16.5415 17.0151C16.3282 17.2283 15.6724 17.3031 14.5259 16.8118C13.3153 16.293 11.9641 15.3227 10.7213 14.0799C9.47852 12.8371 8.50839 11.4861 7.98956 10.2755C7.49816 9.12901 7.5729 8.47299 7.78615 8.25974L9.06564 6.98024L10.646 8.56079L9.88855 9.31842C9.54607 9.6609 9.46338 10.1803 9.68306 10.611C10.6789 12.5637 12.2375 14.1223 14.1902 15.1182C14.6211 15.3378 15.1405 15.2553 15.483 14.9127L16.2404 14.1552L17.821 15.7358L16.5415 17.0151Z" fill="currentColor" />
		</g>
		<defs>
			<clipPath id="clip0_138_208">
			<rect width="24.8012" height="24.8012" fill="white" />
			</clipPath>
		</defs>
	</symbol>

    <!-- vk -->
	<symbol id="svg-vk" viewBox="0 0 25 25">
		<g clip-path="url(#clip0_138_211)">
			<path d="M23.8268 7.57424C23.2023 6.0975 22.3083 4.77131 21.1697 3.63258C20.0311 2.49383 18.7051 1.5997 17.2284 0.975023C15.6992 0.328132 14.0752 9.68799e-05 12.4006 0C10.7269 0 9.10295 0.327938 7.57385 0.974684C6.09718 1.59924 4.77109 2.49325 3.63241 3.63186C2.49374 4.77046 1.59966 6.0965 0.974999 7.57312C0.328132 9.1022 9.69013e-05 10.7262 2.14637e-08 12.3999C-9.68584e-05 14.0737 0.327769 15.6978 0.974466 17.227C1.59898 18.7038 2.49296 20.03 3.63157 21.1687C4.77017 22.3074 6.09624 23.2016 7.57293 23.8262C9.10208 24.4731 10.7261 24.8012 12.4005 24.8013H12.4007C14.0744 24.8013 15.6984 24.4733 17.2275 23.8266C18.7042 23.202 20.0302 22.308 21.1689 21.1694C22.3075 20.0309 23.2016 18.7048 23.8263 17.2282C24.4732 15.6991 24.8012 14.0751 24.8013 12.4014C24.8013 10.7275 24.4735 9.10346 23.8268 7.57424ZM12.4007 23.6466H12.4C9.39609 23.6465 6.57201 22.4765 4.44802 20.3523C2.32407 18.228 1.15444 15.4039 1.15461 12.4C1.15498 6.19927 6.19992 1.15464 12.4013 1.15464C15.4052 1.15481 18.2293 2.32475 20.3532 4.44897C22.4772 6.5732 23.6468 9.39737 23.6466 12.4013C23.6463 18.602 18.6014 23.6466 12.4007 23.6466Z" fill="currentColor" />
			<path d="M3.74214 9.67179C3.92864 10.1586 4.15851 10.628 4.39577 11.0916C4.95954 12.1931 5.54011 13.2635 6.31852 14.2317C7.10516 15.2101 8.0339 16.1582 9.12794 16.7911C9.43221 16.9672 9.75209 17.1157 10.0853 17.2286C11.3709 17.664 12.7808 17.6226 13.2163 17.3323C13.6517 17.042 13.1333 15.1343 13.5273 14.9062C13.9213 14.6781 14.6263 15.1758 15.1446 15.632C15.663 16.0881 16.057 16.4821 16.3473 16.7931C16.5291 16.9879 16.6571 17.2204 16.8941 17.3593C17.2861 17.589 17.8084 17.5636 18.2457 17.5648C18.4895 17.5655 18.7334 17.5663 18.9772 17.5633C19.1419 17.5612 19.3067 17.5666 19.4714 17.5586C19.7419 17.5455 20.0958 17.4387 20.0755 17.1002C20.0707 17.0202 20.0529 16.9244 20.0211 16.8506C19.9528 16.6918 19.8565 16.5271 19.753 16.3888C19.2139 15.6682 18.8562 15.3002 18.5867 15.0098C18.3171 14.7196 17.2078 13.6724 17.1352 13.4651C17.0627 13.2577 17.0393 13.1657 17.2454 12.8858C17.4514 12.6058 17.9024 11.8996 18.255 11.3916C18.476 11.073 18.6769 10.7398 18.8753 10.4068C19.1092 10.0142 19.3292 9.61209 19.5167 9.19512C19.6006 9.00868 19.6767 8.83882 19.6248 8.6299C19.59 8.48993 19.5113 8.36697 19.3647 8.33243C19.2846 8.31359 19.1973 8.31167 19.1154 8.31167C18.8096 8.31167 18.0113 8.31167 18.0113 8.31167C17.867 8.31167 17.7227 8.30957 17.5783 8.30983C17.4304 8.3101 17.2812 8.30894 17.1337 8.32158C16.9238 8.33955 16.7951 8.50141 16.6896 8.66461C16.5604 8.8643 16.4428 9.07206 16.3175 9.27427C16.2319 9.41245 16.148 9.55171 16.0657 9.6919C15.9371 9.91085 15.8045 10.1274 15.672 10.3441C15.617 10.4339 15.5618 10.5237 15.5076 10.614C15.3521 10.8732 14.0043 12.646 13.7347 12.7186C13.4652 12.7913 13.3719 12.7705 13.3719 12.221C13.3719 11.6715 13.3719 8.55087 13.3719 8.55087C13.3719 8.55087 13.3512 8.31025 13.1231 8.31025C12.895 8.31025 11.837 8.31025 11.837 8.31025H9.65504C9.65504 8.31025 9.14186 8.31238 9.3233 8.77377C9.50473 9.23513 10.0413 9.3751 10.0413 10.1449C10.0413 10.9146 10.0413 13.1618 10.0413 13.1618C10.0413 13.1618 9.95057 13.8383 9.36478 13.2785C8.90318 12.8373 8.52285 12.3157 8.1868 11.7749C7.8374 11.2126 7.55592 10.6285 7.30519 10.0164C7.23348 9.84141 7.16246 9.66608 7.08881 9.49186C7.01194 9.31 6.93576 9.12781 6.86204 8.94466C6.77642 8.73192 6.68482 8.45385 6.45396 8.3559C6.33789 8.30666 6.20953 8.30908 6.08581 8.30911C5.62702 8.30923 5.16824 8.31051 4.70947 8.30964C4.57485 8.3094 4.44024 8.30925 4.30562 8.30959C3.98778 8.31034 3.59247 8.30097 3.51707 8.69803C3.47362 8.92674 3.55999 9.17088 3.63228 9.38508C3.66505 9.48247 3.70548 9.57605 3.74214 9.67179Z" fill="currentColor" />
		</g>
		<defs>
			<clipPath id="clip0_138_211">
			<rect width="24.8012" height="24.8012" fill="white" />
			</clipPath>
		</defs>
	</symbol>
</svg>