<svg width="30" height="30" viewBox="0 0 30 30" fill="none" xmlns="http://www.w3.org/2000/svg">
<g clip-path="url(#clip0_138_127)">
<path d="M13.6107 12.2428H16.4154V9.3978C16.4154 9.02876 16.7174 8.72681 17.0864 8.72681C17.4555 8.72681 17.7574 9.02876 17.7574 9.3978V12.2428H20.6024C20.9715 12.2428 21.2734 12.5448 21.2734 12.9138C21.2734 13.2829 20.9715 13.5848 20.6024 13.5848H17.7574V16.3963C17.7574 16.7653 17.4555 17.0673 17.0864 17.0673C16.7174 17.0673 16.4154 16.7653 16.4154 16.3963V13.5848H13.6107C13.2416 13.5848 12.9397 13.2829 12.9397 12.9138C12.9397 12.5448 13.2349 12.2428 13.6107 12.2428Z" fill="black"/>
<path d="M9.9265 5.66706C13.8988 1.70147 20.3605 1.70147 24.3261 5.66706C28.2917 9.63266 28.2917 16.0944 24.3261 20.0667C20.3471 24.0323 13.9055 24.0323 9.9265 20.0667C5.96091 16.1011 5.96091 9.63937 9.9265 5.66706ZM10.8793 19.1206C14.3282 22.5628 19.9378 22.5695 23.38 19.1206C26.8289 15.6716 26.8289 10.0621 23.38 6.61988C19.9244 3.17767 14.335 3.17767 10.8793 6.61988C7.4304 10.0621 7.4304 15.6716 10.8793 19.1206Z" fill="black"/>
<path d="M0.719469 25.7768C0.726179 25.7701 0.732887 25.7634 0.739597 25.7567L6.44307 20.0398C2.48419 14.1417 4.05432 6.14346 9.95238 2.18458C15.8504 -1.7743 23.8487 -0.204168 27.8076 5.69389C31.7665 11.592 30.1964 19.5902 24.2983 23.5491C22.4329 24.8039 20.2723 25.542 18.0312 25.703C17.7292 25.7232 17.4273 25.7366 17.132 25.7366C14.5756 25.7366 12.0794 24.9783 9.95909 23.5558L4.25562 29.2593C3.28938 30.239 1.71925 30.2457 0.746307 29.2861C-0.233347 28.3199 -0.240057 26.7498 0.719469 25.7768ZM10.2812 22.14C15.4076 25.9312 22.6275 24.8441 26.4119 19.7244C30.1964 14.6047 29.1161 7.3781 23.9896 3.59367C18.8632 -0.190749 11.6433 0.889556 7.85887 6.01597C4.8461 10.0956 4.8461 15.6649 7.8723 19.7446C8.55 20.6504 9.36191 21.4623 10.2812 22.14ZM1.6857 28.3132C1.90042 28.5279 2.18895 28.6487 2.49761 28.6487C2.79956 28.6487 3.08809 28.5279 3.30281 28.3132L8.87208 22.7439C8.58355 22.5024 8.30173 22.2474 8.02662 21.9723C7.75151 21.6972 7.49654 21.4154 7.25498 21.1268L1.6857 26.6961C1.24285 27.139 1.24285 27.8636 1.6857 28.3132Z" fill="black"/>
</g>
<defs>
<clipPath id="clip0_138_127">
<rect width="30" height="30" fill="white" transform="matrix(-1 0 0 1 30 0)"/>
</clipPath>
</defs>
</svg>
